# AST/ASF file generated using VICON BodyLanguage
# -----------------------------------------------
:version 1.10
:name VICON
:units
  mass 1.0
  length 0.45
  angle deg
:documentation
   .ast/.asf automatically generated from VICON data using
   VICON BodyBuilder and BodyLanguage model FoxedUp or BRILLIANT.MOD
:root
   order TX TY TZ RX RY RZ
   axis XYZ
   position 0 0 0  
   orientation 0 0 0 
:bonedata
  begin
     id 1 
     name lhipjoint
     direction 0.558404 -0.748506 0.357664 
     length 2.4234 
     axis 0 0 0  XYZ
  end
  begin
     id 2 
     name lfemur
     direction 0.34202 -0.939693 0  
     length 7.14567  
     axis 0 0 20  XYZ
    dof rx ry rz
    limits (-160.0 20.0)
           (-70.0 70.0)
           (-60.0 70.0)
  end
  begin
     id 3 
     name ltibia
     direction 0.34202 -0.939693 0   
     length 8.13956   
     axis 0 0 20   XYZ
    dof rx
    limits (-10.0 170.0)
  end
  begin
     id 4 
     name lfoot
     direction 0.0791314 -0.217412 0.972867   
     length 2.00134   
     axis -90 7.62852e-016 20   XYZ
    dof rx rz
    limits (-45.0 90.0)
           (-70.0 20.0)
  end
  begin
     id 5 
     name ltoes
     direction 1.53547e-011 -4.21922e-011 1   
     length 1.00735   
     axis -90 7.62852e-016 20   XYZ
    dof rx
    limits (-90.0 20.0)
  end
  begin
     id 6 
     name rhipjoint
     direction -0.496392 -0.78327 0.374276   
     length 2.31584  
     axis 0 0 0  XYZ 
  end
  begin
     id 7 
     name rfemur
     direction -0.34202 -0.939693 0   
     length 7.47417   
     axis 0 0 -20   XYZ
    dof rx ry rz
    limits (-160.0 20.0)
           (-70.0 70.0)
           (-70.0 60.0)
  end
  begin
     id 8 
     name rtibia
     direction -0.34202 -0.939693 0   
     length 7.69071   
     axis 0 0 -20   XYZ
    dof rx
    limits (-10.0 170.0)
 end
 begin
     id 9 
     name rfoot
     direction -0.103069 -0.28318 0.953512   
     length 2.16135  
     axis -90 -7.62852e-016 -20   XYZ
    dof rx rz
    limits (-45.0 90.0)
           (-20.0 70.0)
  end
  begin
     id 10 
     name rtoes
     direction -1.53581e-011 -4.21904e-011 1   
     length 1.07867   
     axis -90 -7.62852e-016 -20   XYZ
    dof rx
    limits (-90.0 20.0)
  end
  begin
     id 11 
     name lowerback
     direction -0.0258961 0.994776 -0.0987407   
     length 2.19412   
     axis 0 0 0   XYZ
    dof rx ry rz
    limits (-20.0 45.0)
           (-30.0 30.0)
           (-30.0 30.0)
  end
  begin
     id 12 
     name upperback
     direction 0.0402454 0.999185 0.00320666   
     length 2.18445   
     axis 0 0 0   XYZ
    dof rx ry rz
    limits (-20.0 45.0)
           (-30.0 30.0)
           (-30.0 30.0)
  end
  begin
     id 13 
     name thorax
     direction 0.0519376 0.997415 0.0496558   
     length 2.21487   
     axis 0 0 0   XYZ
    dof rx ry rz
    limits (-20.0 45.0)
           (-30.0 30.0)
           (-30.0 30.0)
  end
  begin
     id 14 
     name lowerneck
     direction -0.0921276 0.983211 0.157506   
     length 1.61201   
     axis 0 0 0   XYZ
    dof rx ry rz
    limits (-20.0 45.0)
           (-30.0 30.0)
           (-30.0 30.0)
  end
  begin
     id 15 
     name upperneck
     direction 0.0820814 0.98162 -0.172292   
     length 1.65275   
     axis 0 0 0   XYZ
    dof rx ry rz
    limits (-20.0 45.0)
           (-30.0 30.0)
           (-30.0 30.0)
  end
  begin
     id 16
     name head
     direction 0.0336554 0.996413 -0.0776455  
     length 1.66415  
     axis 0 0 0   XYZ
    dof rx ry rz
    limits (-20.0 45.0)
           (-30.0 30.0)
           (-30.0 30.0)
  end
  begin
     id 17 
     name lclavicle
     direction 0.94696 0.284418 -0.149576  
     length 3.41447  
     axis 0 0 0   XYZ
    dof ry rz
    limits (-20.0 10.0)
           (0.0 20.0)
  end
  begin
     id 18 
     name lhumerus
     direction 1 -0.000130264 -9.81312e-005   
     length 5.19964   
     axis 180 -30 -90   XYZ
    dof rx ry rz
    limits (-60.0 90.0)
           (-90.0 90.0)
           (-90.0 90.0)
  end
  begin
     id 19
     name lradius
     direction 1 -4.48961e-011 1.43854e-026   
     length 3.32189   
     axis 180 -30 -90   XYZ
    dof rx
    limits (-10.0 170.0)
  end
  begin
     id 20
     name lwrist
     direction 1 -4.48958e-011 3.1502e-026   
     length 1.66095   
     axis -1.97692e-014 90 90   XYZ
    dof ry
    limits (-180.0 0.0)
 end
  begin
     id 21 
     name lhand
     direction 1 -4.48927e-011 6.3004e-026   
     length 0.645616   
     axis -4.02019e-014 90 90   XYZ
    dof rx rz
    limits (-90.0 90.0)
           (-45.0 45.0)
  end
  begin
     id 22 
     name lfingers
     direction 1 -4.4904e-011 1.26008e-025   
     length 0.520512   
     axis -8.04039e-014 90 90   XYZ
    dof rx
    limits (0.0 90.0)
  end
  begin
     id 23
     name lthumb
     direction 0.707107 -6.34947e-011 0.707107   
     length 0.747354   
     axis -90 45 2.85299e-015   XYZ
    dof rx rz
    limits (-45.0 45.0)
           (-45.0 45.0)
  end
  begin
     id 24 
     name rclavicle
     direction -0.909391 0.383475 -0.161107   
     length 3.25176  
     axis 0 0 0   XYZ 
    dof ry rz
    limits (-10.0 20.0)
           (-20.0 0.0)
  end
  begin
     id 25 
     name rhumerus
     direction -1 -4.48965e-011 -1.81384e-027  
     length 5.6595   
     axis 180 30 90   XYZ
    dof rx ry rz
    limits (-90.0 60.0)
           (-90.0 90.0)
           (-90.0 90.0)
  end
  begin
     id 26 
     name rradius
     direction -1 -4.48996e-011 -8.09397e-027   
     length 3.37604   
     axis 180 30 90   XYZ
    dof rx
    limits (-10.0 170.0)
  end
  begin
     id 27 
     name rwrist
     direction -1 -4.48927e-011 -1.56669e-026   
     length 1.68802   
     axis 1.21142e-014 -90 -90   XYZ
    dof ry
    limits (-180.0 0.0)
  end
  begin
     id 28
     name rhand
     direction -1 -4.48912e-011 -3.13339e-026   
     length 0.824702   
     axis 1.99937e-014 -90 -90   XYZ
    dof rx rz
    limits (-90.0 90.0)
           (-45.0 45.0)
  end
  begin
     id 29
     name rfingers
     direction -1 -4.49011e-011 -6.26677e-026   
     length 0.664896   
     axis 3.99874e-014 -90 -90   XYZ
    dof rx
    limits (0.0 90.0)
  end
  begin
     id 30
     name rthumb
     direction -0.707107 -6.34931e-011 0.707107   
     length 0.954662   
     axis -90 -45 -2.85299e-015   XYZ
    dof rx rz
    limits (-45.0 45.0)
           (-45.0 45.0)
  end
:hierarchy
  begin
    root lhipjoint rhipjoint lowerback
    lhipjoint lfemur
    lfemur ltibia
    ltibia lfoot
    lfoot ltoes
    rhipjoint rfemur
    rfemur rtibia
    rtibia rfoot
    rfoot rtoes
    lowerback upperback
    upperback thorax
    thorax lowerneck lclavicle rclavicle
    lowerneck upperneck
    upperneck head
    lclavicle lhumerus
    lhumerus lradius
    lradius lwrist
    lwrist lhand lthumb
    lhand lfingers
    rclavicle rhumerus
    rhumerus rradius
    rradius rwrist
    rwrist rhand rthumb
    rhand rfingers
  end

#!OML:ASF F:\VICON\USERDATA\INSTALL\rory3\rory3.ASF
:FULLY-SPECIFIED
:DEGREES
1
root 10.4674 17.77 -18.1914 7.70326 -37.3715 -8.45669
lowerback 4.49113 -0.246768 -2.33609
upperback -1.49678 -0.316592 4.68927
thorax -4.04018 -0.0448804 6.24129
lowerneck -11.0524 -8.97525 -17.7371
upperneck 16.4966 -11.7476 13.4955
head 8.84816 -5.57866 6.08995
rclavicle -1.55673e-014 7.11649e-014
rhumerus -39.067 -21.9912 -66.5157
rradius 32.0461
rwrist -16.1157
rhand -10.4701 16.5218
rfingers 7.12502
rthumb 15.531 -12.8745
lclavicle -1.55673e-014 7.11649e-014
lhumerus -33.5853 23.4792 74.9611
lradius 25.6653
lwrist -11.3305
lhand -0.790152 33.1208
lfingers 7.12502
lthumb 24.8333 61.5281
rfemur -14.8304 4.38153 23.4693
rtibia 37.5368
rfoot -19.7241 -10.1013
rtoes 10.7368
lfemur -12.5863 1.10708 -16.0853
ltibia 37.7958
lfoot -24.5346 9.13174
ltoes 6.41759
2
root 10.4675 17.7686 -18.1944 7.75319 -37.2759 -8.62284
lowerback 4.58393 -0.290686 -2.1706
upperback -1.55236 -0.362813 4.73713
thorax -4.14545 -0.0684182 6.20344
lowerneck -10.8628 -8.92617 -17.8965
upperneck 16.4389 -11.7196 13.6952
head 8.81276 -5.56737 6.19735
rclavicle 9.14223e-014 2.42517e-014
rhumerus -39.0669 -21.4745 -66.7603
rradius 32.3907
rwrist -16.3068
rhand -10.7157 16.4816
rfingers 7.12502
rthumb 15.2944 -12.9329
lclavicle 9.14223e-014 2.42517e-014
lhumerus -33.7014 23.411 74.924
lradius 25.7088
lwrist -11.2806
lhand -0.829963 32.844
lfingers 7.12502
lthumb 24.7952 61.2566
rfemur -14.7921 4.39556 23.6539
rtibia 37.56
rfoot -19.7767 -10.1564
rtoes 11.1699
lfemur -12.566 1.25538 -15.8777
ltibia 37.8024
lfoot -24.5331 8.9427
ltoes 6.14196
3
root 10.4649 17.7644 -18.1731 7.24122 -37.3898 -8.0305
lowerback 4.2265 -0.323779 -2.08665
upperback -1.31964 -0.421098 4.25097
thorax -3.6947 -0.11875 5.63136
lowerneck -10.8892 -8.882 -17.6368
upperneck 16.3441 -11.7577 13.9959
head 8.7947 -5.54493 6.2556
rclavicle -6.60214e-014 2.54444e-014
rhumerus -38.8278 -21.7373 -67.421
rradius 32.6205
rwrist -16.3323
rhand -10.8421 16.2727
rfingers 7.12502
rthumb 15.1726 -13.151
lclavicle -6.60214e-014 2.54444e-014
lhumerus -33.3377 23.1064 74.6017
lradius 25.6573
lwrist -11.1396
lhand -0.685385 32.8191
lfingers 7.12502
lthumb 24.9337 61.2125
rfemur -14.5694 4.18701 23.0593
rtibia 37.6328
rfoot -19.8449 -9.93695
rtoes 10.4627
lfemur -12.2111 1.16068 -16.4949
ltibia 37.6785
lfoot -24.6323 9.14224
ltoes 6.2056
4
root 10.4623 17.7649 -18.1704 7.1881 -37.4993 -7.92962
lowerback 3.91214 -0.31265 -1.76106
upperback -1.14102 -0.401524 3.90439
thorax -3.33623 -0.129438 5.06944
lowerneck -11.0637 -8.89761 -17.1291
upperneck 16.1997 -11.8212 13.9546
head 8.75262 -5.53946 6.14007
rclavicle -8.64247e-014 5.46658e-015
rhumerus -38.5741 -22.1517 -68.0092
rradius 32.855
rwrist -16.3911
rhand -10.6732 16.2105
rfingers 7.12502
rthumb 15.3353 -13.2009
lclavicle -8.64247e-014 5.46658e-015
lhumerus -32.8275 22.7594 74.3699
lradius 25.5291
lwrist -11.0528
lhand -0.874419 32.6296
lfingers 7.12502
lthumb 24.7526 61.048
rfemur -14.5887 4.30349 22.9592
rtibia 37.6707
rfoot -19.8906 -9.95201
rtoes 10.7279
lfemur -12.157 0.931614 -16.6458
ltibia 37.6286
lfoot -24.681 9.37117
ltoes 6.70654
5
root 10.4599 17.7644 -18.1704 7.20687 -37.599 -7.91397
lowerback 3.91145 -0.289287 -1.81079
upperback -1.19252 -0.370943 3.93545
thorax -3.39206 -0.110955 5.12932
lowerneck -11.0986 -8.91908 -17.0386
upperneck 16.1331 -11.8202 13.7935
head 8.71969 -5.54422 6.06524
rclavicle 2.4786e-015 -8.54774e-015
rhumerus -38.5549 -22.0115 -68.0498
rradius 33.0973
rwrist -16.4648
rhand -10.6781 16.3607
rfingers 7.12502
rthumb 15.3306 -13.0511
lclavicle 2.4786e-015 -8.54774e-015
lhumerus -32.8088 22.6378 74.4442
lradius 25.4198
lwrist -10.941
lhand -1.34353 32.2706
lfingers 7.12502
lthumb 24.3029 60.75
rfemur -14.6415 4.41229 22.9384
rtibia 37.7058
rfoot -19.9228 -9.96461
rtoes 11.0064
lfemur -12.1627 0.78183 -16.6839
ltibia 37.5756
lfoot -24.7312 9.40935
ltoes 7.50356
6
root 10.4586 17.7635 -18.1689 7.33168 -37.6215 -8.06534
lowerback 4.10514 -0.303806 -2.00488
upperback -1.37644 -0.389245 4.23082
thorax -3.68911 -0.104185 5.55977
lowerneck -11.1384 -8.9044 -17.254
upperneck 16.2262 -11.7325 13.6582
head 8.74856 -5.52495 6.06546
rclavicle 4.00613e-014 1.43125e-014
rhumerus -38.5747 -21.371 -67.9059
rradius 33.3528
rwrist -16.8005
rhand -10.9571 16.372
rfingers 7.12502
rthumb 15.0618 -13.0601
lclavicle 4.00613e-014 1.43125e-014
lhumerus -33.205 22.7738 74.6505
lradius 25.4713
lwrist -10.8154
lhand -1.45513 32.2724
lfingers 7.12502
lthumb 24.1959 60.7661
rfemur -14.6816 4.44009 23.0724
rtibia 37.7136
rfoot -19.9197 -9.95664
rtoes 10.8927
lfemur -12.2095 0.78521 -16.5439
ltibia 37.5817
lfoot -24.7182 9.41216
ltoes 7.30876
7
root 10.4578 17.7647 -18.168 7.52091 -37.5987 -8.29888
lowerback 4.2311 -0.35064 -2.02133
upperback -1.52861 -0.443415 4.46047
thorax -3.91202 -0.121358 5.82176
lowerneck -11.1279 -8.8709 -17.451
upperneck 16.3452 -11.6335 13.5242
head 8.7739 -5.502 6.06684
rclavicle -3.22777e-014 1.98785e-015
rhumerus -38.5401 -20.6703 -67.9666
rradius 33.6306
rwrist -17.1397
rhand -11.1589 16.097
rfingers 7.12502
rthumb 14.8674 -13.3495
lclavicle -3.22777e-014 1.98785e-015
lhumerus -33.6346 22.9105 74.74
lradius 25.6986
lwrist -10.7121
lhand -1.51763 32.3303
lfingers 7.12502
lthumb 24.136 60.832
rfemur -14.7356 4.48729 23.2904
rtibia 37.7284
rfoot -19.9967 -9.90486
rtoes 11.6901
lfemur -12.2561 0.851972 -16.3234
ltibia 37.587
lfoot -24.6122 9.45413
ltoes 6.97314
8
root 10.4555 17.7645 -18.1647 7.40461 -37.6351 -8.12284
lowerback 4.23215 -0.363967 -2.17477
upperback -1.56395 -0.469302 4.45203
thorax -3.94572 -0.128922 5.90358
lowerneck -11.0214 -8.89762 -17.6463
upperneck 16.3085 -11.6592 13.5753
head 8.76282 -5.526 6.11551
rclavicle -1.64122e-014 -5.32743e-014
rhumerus -38.4663 -20.4714 -68.06
rradius 33.8079
rwrist -17.0347
rhand -11.0628 16.0297
rfingers 7.12502
rthumb 14.96 -13.4099
lclavicle -1.64122e-014 -5.32743e-014
lhumerus -33.8099 22.8855 74.7643
lradius 25.9251
lwrist -10.6622
lhand -1.60767 32.3594
lfingers 7.12502
lthumb 24.0496 60.8725
rfemur -14.7098 4.54436 23.1339
rtibia 37.7434
rfoot -20.0379 -9.89646
rtoes 11.9076
lfemur -12.2194 0.901886 -16.485
ltibia 37.5976
lfoot -24.6073 9.4916
ltoes 7.11792
9
root 10.4528 17.7628 -18.1598 7.18145 -37.6765 -7.86288
lowerback 4.08763 -0.369758 -2.19432
upperback -1.42551 -0.486655 4.23714
thorax -3.71831 -0.146705 5.68254
lowerneck -11.0734 -8.92453 -17.4843
upperneck 16.1513 -11.7346 13.7294
head 8.73195 -5.53638 6.12866
rclavicle -9.88954e-015 5.54609e-014
rhumerus -38.2369 -20.7918 -68.3779
rradius 33.9096
rwrist -16.7309
rhand -10.8183 16.3118
rfingers 7.12502
rthumb 15.1955 -13.1102
lclavicle -9.88954e-015 5.54609e-014
lhumerus -33.4933 22.7299 74.6756
lradius 25.9049
lwrist -10.659
lhand -1.66836 32.3966
lfingers 7.12502
lthumb 23.9914 60.9174
rfemur -14.6145 4.53514 22.8955
rtibia 37.7552
rfoot -20.0543 -9.92391
rtoes 11.5516
lfemur -12.1185 0.87136 -16.7381
ltibia 37.6135
lfoot -24.6965 9.56097
ltoes 7.02598
10
root 10.4509 17.7625 -18.1622 7.3071 -37.5735 -8.03456
lowerback 3.64754 -0.416116 -1.57633
upperback -1.12194 -0.533145 3.86793
thorax -3.15529 -0.203195 4.92945
lowerneck -11.3054 -8.95009 -16.9567
upperneck 15.9238 -11.8659 14.0039
head 8.70396 -5.53467 6.11001
rclavicle -9.74262e-014 7.05686e-015
rhumerus -37.795 -21.6455 -69.0338
rradius 33.9324
rwrist -16.2629
rhand -10.5869 16.6319
rfingers 7.12502
rthumb 15.4185 -12.7731
lclavicle -9.74262e-014 7.05686e-015
lhumerus -32.5913 22.3549 74.4179
lradius 25.5869
lwrist -10.5024
lhand -1.77193 32.3872
lfingers 7.12502
lthumb 23.8921 60.921
rfemur -14.6376 4.50555 23.0784
rtibia 37.7806
rfoot -20.0787 -10.0203
rtoes 11.6748
lfemur -12.1714 0.906734 -16.5425
ltibia 37.6194
lfoot -24.6509 9.41667
ltoes 7.05906
11
root 10.4497 17.7627 -18.1657 7.4715 -37.4314 -8.16158
lowerback 3.90019 -0.381511 -1.81926
upperback -1.38677 -0.484384 4.20371
thorax -3.57446 -0.158756 5.42789
lowerneck -11.2245 -9.01772 -17.2761
upperneck 16.0511 -11.896 13.8558
head 8.74847 -5.58271 6.10863
rclavicle -2.06798e-014 1.07344e-014
rhumerus -37.9961 -21.251 -68.5764
rradius 34.1776
rwrist -16.5625
rhand -10.7147 16.6401
rfingers 7.12502
rthumb 15.2953 -12.7744
lclavicle -2.06798e-014 1.07344e-014
lhumerus -32.7826 22.4605 74.7668
lradius 25.3779
lwrist -10.6028
lhand -1.69353 32.441
lfingers 7.12502
lthumb 23.9673 60.965
rfemur -14.7437 4.46464 23.2277
rtibia 37.8055
rfoot -20.0362 -10.126
rtoes 11.5457
lfemur -12.3142 0.890637 -16.3699
ltibia 37.6226
lfoot -24.5817 9.20586
ltoes 7.74513
12
root 10.4486 17.7621 -18.1637 7.39982 -37.4234 -7.95914
lowerback 3.98028 -0.355325 -2.08624
upperback -1.54103 -0.457257 4.29808
thorax -3.78148 -0.130728 5.68324
lowerneck -11.0399 -9.03795 -17.4632
upperneck 15.9893 -11.9113 13.845
head 8.70848 -5.60931 6.13751
rclavicle -2.87927e-015 1.82882e-014
rhumerus -38.0903 -20.4841 -68.6408
rradius 34.5465
rwrist -17.2569
rhand -11.0882 16.5575
rfingers 7.12502
rthumb 14.9355 -12.8841
lclavicle -2.87927e-015 1.82882e-014
lhumerus -33.0497 22.6554 74.86
lradius 25.5116
lwrist -10.7668
lhand -1.35842 32.7078
lfingers 7.12502
lthumb 24.2886 61.1891
rfemur -14.8043 4.41403 23.0399
rtibia 37.8203
rfoot -20.0165 -10.0858
rtoes 11.2803
lfemur -12.3603 0.845306 -16.5513
ltibia 37.628
lfoot -24.6505 9.19637
ltoes 7.90097
